<svg xmlns="http://www.w3.org/2000/svg" xmlns:svg="http://www.w3.org/2000/svg" xmlns:xlink="http://www.w3.org/1999/xlink" version="1.0" height="600pt" width="960.0000000000002pt" viewBox="384.99999999999994 106.99999999999994 968.0000000000002 606" ><defs><style type="text/css">
            @font-face {
                font-family: 'lt_regular';
                src: url('https://app.creately.com/diagram/assets/fonts/lato/lt-regular-webfont.woff2') format('woff2'),
                    url('https://app.creately.com/diagram/assets/fonts/lato/lt-regular-webfont.woff') format('woff');
                font-weight: normal;
                font-style: normal;
            }
            @font-face {
                font-family: 'noto_regular';
                src: url('https://app.creately.com/diagram/assets/fonts/noto/noto-regular.woff') format('woff'),
                     url('https://app.creately.com/diagram/assets/fonts/noto/noto-regular.woff2') format('woff2');
                font-weight: normal;
                font-style: normal;
            }
        p {
            margin: 0;
        }
        </style></defs><defs><style>
            span{ display: inline-block; }
        </style></defs><g id="x7Sa5qgtDF2"><g transform="translate(527.5 229.99999999999994)"><rect x="0" y="0" width="100" height="50" fill="rgb(131,140,241)" stroke="#838cf1" stroke-width="2" stroke-linecap="round" stroke-linejoin="round"/></g><g transform="translate(559.49, 245.99999999999994) rotate(0, 18.01, 9)" width="36.02" height="18"><text text-decoration="none" x="0.010000000000001563" fill="#ffffff" font-size="10pt" font-family="lt_regular"  y="17">Ticket</text><text text-decoration="none" x="36.010000000000005" fill="#4b4b4b" font-size="10pt" font-family="noto_regular"  y="17"></text></g></g><g id="gC8MN5ayB06"><g transform="translate(1049.9999999999998 230)"><rect x="0" y="0" width="99.99999999999997" height="49.999999999999986" fill="rgb(131,140,241)" stroke="#838cf1" stroke-width="2" stroke-linecap="round" stroke-linejoin="round"/></g><g transform="translate(1070.2799999999997, 246) rotate(0, 29.72, 9)" width="59.44" height="18"><text text-decoration="none" x="0.21999999999999886" fill="rgb(255, 255, 255)" font-size="10pt" font-family="lt_regular"  y="17">Passenger</text><text text-decoration="none" x="59.22" fill="#4b4b4b" font-size="10pt" font-family="noto_regular"  y="17"></text></g></g><g id="UXnCrdqsrr6"><g transform="translate(527.5 530)"><rect x="0" y="0" width="99.99999999999997" height="49.999999999999986" fill="rgb(131,140,241)" stroke="#838cf1" stroke-width="2" stroke-linecap="round" stroke-linejoin="round"/></g><g transform="translate(546.335, 546) rotate(0, 31.165, 9)" width="62.33" height="18"><text text-decoration="none" x="1.1649999999999991" fill="rgb(255, 255, 255)" font-size="10pt" font-family="lt_regular"  y="17">Conductor</text><text text-decoration="none" x="61.165" fill="#4b4b4b" font-size="10pt" font-family="noto_regular"  y="17"></text></g></g><g id="4HnzCTu4DSt"><g transform="translate(1050 530)"><rect x="0" y="0" width="99.06542056074764" height="49.99999999999997" fill="rgb(131,140,241)" stroke="#838cf1" stroke-width="2" stroke-linecap="round" stroke-linejoin="round"/></g><g transform="translate(1088.622710280374, 546) rotate(0, 10.91, 9)" width="21.82" height="18"><text text-decoration="none" x="0.41000000000000014" fill="rgb(255, 255, 255)" font-size="10pt" font-family="lt_regular"  y="17">Bus</text><text text-decoration="none" x="21.41" fill="#4b4b4b" font-size="10pt" font-family="noto_regular"  y="17"></text></g></g><g id="1CCVTOEUDFK"><g transform="translate(779.9999999999998 220)"><path d="M 119.99999999999994,34.999999999999986 L 59.99999999999997,69.99999999999997 L 0,34.999999999999986 L 59.99999999999997,0 L 119.99999999999994,34.999999999999986 L 119.99999999999994,34.999999999999986 Z" fill="rgb(104,209,191)" stroke="#68d1bf" stroke-width="2" stroke-linecap="round" stroke-linejoin="round"/></g><g transform="translate(828.5349999999997, 246) rotate(0, 11.465, 9)" width="22.93" height="18"><text text-decoration="none" x="0.46499999999999986" fill="#ffffff" font-size="10pt" font-family="lt_regular"  y="17">Buy</text><text text-decoration="none" x="22.465" fill="#4b4b4b" font-size="10pt" font-family="noto_regular"  y="17"></text></g></g><g id="mILWn15djhJ"><g transform="translate(517.5 360)"><path d="M 119.99999999999997,34.99999999999999 L 59.999999999999986,69.99999999999999 L 0,34.99999999999999 L 59.999999999999986,0 L 119.99999999999997,34.99999999999999 L 119.99999999999997,34.99999999999999 Z" fill="rgb(104,209,191)" stroke="#68d1bf" stroke-width="2" stroke-linecap="round" stroke-linejoin="round"/></g><g transform="translate(559.24, 386) rotate(0, 18.26, 9)" width="36.52" height="18"><text text-decoration="none" x="0.26000000000000156" fill="rgb(255, 255, 255)" font-size="10pt" font-family="lt_regular"  y="17">Check</text><text text-decoration="none" x="36.260000000000005" fill="#4b4b4b" font-size="10pt" font-family="noto_regular"  y="17"></text></g></g><g id="Chil8LiyqIe"><g transform="translate(779.9766355140188 520)"><path d="M 118.87850467289721,35 L 59.439252336448604,70 L 0,35 L 59.439252336448604,0 L 118.87850467289721,35 L 118.87850467289721,35 Z" fill="rgb(104,209,191)" stroke="#68d1bf" stroke-width="2" stroke-linecap="round" stroke-linejoin="round"/></g><g transform="translate(824.0608878504673, 546) rotate(0, 15.355, 9)" width="30.71" height="18"><text text-decoration="none" x="0.3550000000000004" fill="rgb(255, 255, 255)" font-size="10pt" font-family="lt_regular"  y="17">Have</text><text text-decoration="none" x="30.355" fill="#4b4b4b" font-size="10pt" font-family="noto_regular"  y="17"></text></g></g><g id="8JLBsx1AKI7"><g transform="translate(1040 360)"><path d="M 119.99999999999997,34.99999999999999 L 59.999999999999986,69.99999999999999 L 0,34.99999999999999 L 59.999999999999986,0 L 119.99999999999997,34.99999999999999 L 119.99999999999997,34.99999999999999 Z" fill="rgb(104,209,191)" stroke="#68d1bf" stroke-width="2" stroke-linecap="round" stroke-linejoin="round"/></g><g transform="translate(1081.8, 386) rotate(0, 18.2, 9)" width="36.4" height="18"><text text-decoration="none" x="0.1999999999999993" fill="rgb(255, 255, 255)" font-size="10pt" font-family="lt_regular"  y="17">Travel</text><text text-decoration="none" x="36.2" fill="#4b4b4b" font-size="10pt" font-family="noto_regular"  y="17"></text></g></g><g id="XW1XXbnwCrK"><g transform="translate(397.49999999999983 289.99999999999994)"><ellipse cx="50" cy="25" rx="50" ry="25" fill="rgb(201,210,250)" stroke="#c9d2fa" stroke-width="2" stroke-linecap="round" stroke-linejoin="round"/></g><g transform="translate(422.5199999999998, 305.99999999999994) rotate(0, 24.98, 9)" width="49.96" height="18"><text text-decoration="none" x="0.4800000000000004" fill="rgb(0, 0, 0)" font-size="10pt" font-family="lt_regular"  y="17">tnumber</text><text text-decoration="none" x="49.480000000000004" fill="#4b4b4b" font-size="10pt" font-family="noto_regular"  y="17"></text></g></g><g id="xEQSBBMZcfd"><g transform="translate(399.99999999999994 180)"><ellipse cx="50" cy="25" rx="50" ry="25" fill="rgb(201,210,250)" stroke="#c9d2fa" stroke-width="2" stroke-linecap="round" stroke-linejoin="round"/></g><g transform="translate(440.7099999999999, 196) rotate(0, 9.29, 9)" width="18.58" height="18"><text text-decoration="none" x="0.28999999999999915" fill="rgb(0, 0, 0)" font-size="10pt" font-family="lt_regular"  y="17">t.id</text><text text-decoration="none" x="18.29" fill="#4b4b4b" font-size="10pt" font-family="noto_regular"  y="17"></text></g></g><g id="eu57x874Aet"><g transform="translate(449.99999999999994 115)"><ellipse cx="50" cy="25" rx="50" ry="25" fill="rgb(201,210,250)" stroke="#c9d2fa" stroke-width="2" stroke-linecap="round" stroke-linejoin="round"/></g><g transform="translate(480.05, 131) rotate(0, 19.95, 9)" width="39.9" height="18"><text text-decoration="none" x="0.4499999999999993" fill="rgb(0, 0, 0)" font-size="10pt" font-family="lt_regular"  y="17">T_date</text><text text-decoration="none" x="39.45" fill="#4b4b4b" font-size="10pt" font-family="noto_regular"  y="17"></text></g></g><g id="CUYJJfKBNVi"><g transform="translate(630 109.99999999999994)"><ellipse cx="49.99999999999998" cy="24.99999999999999" rx="49.99999999999998" ry="24.99999999999999" fill="rgb(201,210,250)" stroke="#c9d2fa" stroke-width="2" stroke-linecap="round" stroke-linejoin="round"/></g><g transform="translate(653.645, 125.99999999999994) rotate(0, 26.355, 9)" width="52.71" height="18"><text text-decoration="none" x="0.8550000000000004" fill="rgb(0, 0, 0)" font-size="10pt" font-family="lt_regular"  y="17">t.amount</text><text text-decoration="none" x="51.855000000000004" fill="#4b4b4b" font-size="10pt" font-family="noto_regular"  y="17"></text></g></g><g id="YWORJyt4oWl"><g transform="translate(1160 109.99999999999994)"><ellipse cx="49.99999999999997" cy="24.999999999999986" rx="49.99999999999997" ry="24.999999999999986" fill="rgb(201,210,250)" stroke="#c9d2fa" stroke-width="2" stroke-linecap="round" stroke-linejoin="round"/></g><g transform="translate(1199.365, 125.99999999999994) rotate(0, 10.635, 9)" width="21.27" height="18"><text text-decoration="none" x="0.6349999999999998" fill="rgb(0, 0, 0)" font-size="10pt" font-family="lt_regular"  y="17">p.id</text><text text-decoration="none" x="20.634999999999998" fill="#4b4b4b" font-size="10pt" font-family="noto_regular"  y="17"></text></g></g><g id="fGp1h9hQ1o8"><g transform="translate(980.0000000000002 109.99999999999994)"><ellipse cx="49.99999999999997" cy="24.999999999999986" rx="49.99999999999997" ry="24.999999999999986" fill="rgb(201,210,250)" stroke="#c9d2fa" stroke-width="2" stroke-linecap="round" stroke-linejoin="round"/></g><g transform="translate(1010.2400000000002, 125.99999999999994) rotate(0, 19.76, 9)" width="39.52" height="18"><text text-decoration="none" x="0.7600000000000016" fill="rgb(0, 0, 0)" font-size="10pt" font-family="lt_regular"  y="17">pname</text><text text-decoration="none" x="38.760000000000005" fill="#4b4b4b" font-size="10pt" font-family="noto_regular"  y="17"></text></g></g><g id="PymM5sk0qLB"><g transform="translate(915 320)"><ellipse cx="50" cy="25" rx="50" ry="25" fill="rgb(201,210,250)" stroke="#c9d2fa" stroke-width="2" stroke-linecap="round" stroke-linejoin="round"/></g><g transform="translate(926.715, 336) rotate(0, 38.285, 9)" width="76.57" height="18"><text text-decoration="none" x="0.7849999999999966" fill="rgb(0, 0, 0)" font-size="10pt" font-family="lt_regular"  y="17">p.sitenumber</text><text text-decoration="none" x="75.785" fill="#4b4b4b" font-size="10pt" font-family="noto_regular"  y="17"></text></g></g><g id="pnSl2lRFhBR"><g transform="translate(1240.0000000000002 189.99999999999994)"><ellipse cx="54.99999999999999" cy="27.499999999999996" rx="54.99999999999999" ry="27.499999999999996" fill="rgb(252,249,201)" stroke="#929292" stroke-width="2" stroke-linecap="round" stroke-linejoin="round" stroke-dasharray="0 0"/><ellipse cx="54.99999999999999" cy="27.499999999999996" rx="49.99999999999999" ry="22.499999999999996" fill="rgb(252,249,201)" stroke="#929292" stroke-width="2" stroke-linecap="round" stroke-linejoin="round" stroke-dasharray="0 0"/></g><g transform="translate(1280.4450000000002, 208.49999999999994) rotate(0, 14.555, 9)" width="29.11" height="18"><text text-decoration="none" x="0.5549999999999997" fill="#000000" font-size="10pt" font-family="lt_regular"  y="17">P_no</text><text text-decoration="none" x="28.555" fill="#4b4b4b" font-size="10pt" font-family="noto_regular"  y="17"></text></g></g><g id="LgWUAdjjUce"><g transform="translate(1240.0000000000002 309.99999999999994)"><ellipse cx="49.99999999999993" cy="24.999999999999964" rx="49.99999999999993" ry="24.999999999999964" fill="rgb(255,255,255)" stroke="#8a8a8a" stroke-width="2" stroke-linecap="round" stroke-linejoin="round" stroke-dasharray="3 3"/></g><g transform="translate(1272.645, 325.9999999999999) rotate(0, 17.355, 9)" width="34.71" height="18"><text text-decoration="none" x="0.3550000000000004" fill="rgb(0, 0, 0)" font-size="10pt" font-family="lt_regular"  y="17">P_age</text><text text-decoration="none" x="34.355000000000004" fill="#4b4b4b" font-size="10pt" font-family="noto_regular"  y="17"></text></g></g><g id="iBFv3pcnkI6"><g transform="translate(389.99999999999994 479.99999999999994)"><ellipse cx="49.99999999999998" cy="24.99999999999999" rx="49.99999999999998" ry="24.99999999999999" fill="rgb(201,210,250)" stroke="#c9d2fa" stroke-width="2" stroke-linecap="round" stroke-linejoin="round"/></g><g transform="translate(427.15499999999986, 495.9999999999999) rotate(0, 12.845, 9)" width="25.69" height="18"><text text-decoration="none" x="0.34500000000000064" fill="rgb(0, 0, 0)" font-size="10pt" font-family="lt_regular"  y="17">C_id</text><text text-decoration="none" x="25.345" fill="#4b4b4b" font-size="10pt" font-family="noto_regular"  y="17"></text></g></g><g id="fnqmqdozPGQ"><g transform="translate(399.99999999999994 580)"><ellipse cx="49.999999999999986" cy="24.999999999999993" rx="49.999999999999986" ry="24.999999999999993" fill="rgb(201,210,250)" stroke="#c9d2fa" stroke-width="2" stroke-linecap="round" stroke-linejoin="round"/></g><g transform="translate(427.7299999999999, 596) rotate(0, 22.27, 9)" width="44.54" height="18"><text text-decoration="none" x="0.7699999999999996" fill="rgb(0, 0, 0)" font-size="10pt" font-family="lt_regular"  y="17">c_name</text><text text-decoration="none" x="43.769999999999996" fill="#4b4b4b" font-size="10pt" font-family="noto_regular"  y="17"></text></g></g><g id="0Fcfn9atfK1"><g transform="translate(520 660)"><ellipse cx="49.99999999999998" cy="24.99999999999999" rx="49.99999999999998" ry="24.99999999999999" fill="rgb(201,210,250)" stroke="#c9d2fa" stroke-width="2" stroke-linecap="round" stroke-linejoin="round"/></g><g transform="translate(540.005, 676) rotate(0, 29.995, 9)" width="59.99" height="18"><text text-decoration="none" x="0.495000000000001" fill="rgb(0, 0, 0)" font-size="10pt" font-family="lt_regular"  y="17">C_address</text><text text-decoration="none" x="59.495000000000005" fill="#4b4b4b" font-size="10pt" font-family="noto_regular"  y="17"></text></g></g><g id="weJuwSoc0kU"><g transform="translate(640 639.9999999999999)"><ellipse cx="49.999999999999964" cy="24.999999999999982" rx="49.999999999999964" ry="24.999999999999982" fill="rgb(255,255,255)" stroke="#8a8a8a" stroke-width="2" stroke-linecap="round" stroke-linejoin="round" stroke-dasharray="3 3"/></g><g transform="translate(672.195, 655.9999999999999) rotate(0, 17.805, 9)" width="35.61" height="18"><text text-decoration="none" x="0.3049999999999997" fill="rgb(0, 0, 0)" font-size="10pt" font-family="lt_regular"  y="17">C_age</text><text text-decoration="none" x="35.305" fill="#4b4b4b" font-size="10pt" font-family="noto_regular"  y="17"></text></g></g><g id="cZIson7fohD"><g transform="translate(1240.0000000000002 490.00000000000017)"><ellipse cx="49.99999999999994" cy="24.99999999999997" rx="49.99999999999994" ry="24.99999999999997" fill="rgb(201,210,250)" stroke="#c9d2fa" stroke-width="2" stroke-linecap="round" stroke-linejoin="round"/></g><g transform="translate(1269.64, 506.0000000000001) rotate(0, 20.36, 9)" width="40.72" height="18"><text text-decoration="none" x="0.35999999999999943" fill="rgb(0, 0, 0)" font-size="10pt" font-family="lt_regular"  y="17">B_time</text><text text-decoration="none" x="40.36" fill="#4b4b4b" font-size="10pt" font-family="noto_regular"  y="17"></text></g></g><g id="8UnbFRed0NB"><g transform="translate(1240 600)"><ellipse cx="50" cy="25" rx="50" ry="25" fill="rgb(201,210,250)" stroke="#c9d2fa" stroke-width="2" stroke-linecap="round" stroke-linejoin="round"/></g><g transform="translate(1268.285, 616) rotate(0, 21.715, 9)" width="43.43" height="18"><text text-decoration="none" x="0.7149999999999999" fill="rgb(0, 0, 0)" font-size="10pt" font-family="lt_regular"  y="17">B.route</text><text text-decoration="none" x="42.715" fill="#4b4b4b" font-size="10pt" font-family="noto_regular"  y="17"></text></g></g><g id="HLNLzXsFwyM"><g transform="translate(1119.9999999999998 649.9999999999998)"><ellipse cx="49.99999999999999" cy="24.999999999999996" rx="49.99999999999999" ry="24.999999999999996" fill="rgb(201,210,250)" stroke="#c9d2fa" stroke-width="2" stroke-linecap="round" stroke-linejoin="round"/></g><g transform="translate(1150.8399999999997, 665.9999999999998) rotate(0, 19.16, 9)" width="38.32" height="18"><text text-decoration="none" x="0.16000000000000014" fill="rgb(0, 0, 0)" font-size="10pt" font-family="lt_regular"  y="17">B.sites</text><text text-decoration="none" x="38.16" fill="#4b4b4b" font-size="10pt" font-family="noto_regular"  y="17"></text></g></g><g id="SasR0vKBpBl"><g transform="translate(970.0000000000002 660)"><ellipse cx="49.99999999999998" cy="24.99999999999999" rx="49.99999999999998" ry="24.99999999999999" fill="rgb(201,210,250)" stroke="#c9d2fa" stroke-width="2" stroke-linecap="round" stroke-linejoin="round"/></g><g transform="translate(986.4500000000003, 676) rotate(0, 33.55, 9)" width="67.1" height="18"><text text-decoration="none" x="1.5499999999999972" fill="rgb(0, 0, 0)" font-size="10pt" font-family="lt_regular"  y="17">B_windows</text><text text-decoration="none" x="65.55" fill="#4b4b4b" font-size="10pt" font-family="noto_regular"  y="17"></text></g></g><g id="StqWldBPjlH"><g transform="translate(915 449.99999999999994)"><ellipse cx="50" cy="25" rx="50" ry="25" fill="rgb(201,210,250)" stroke="#c9d2fa" stroke-width="2" stroke-linecap="round" stroke-linejoin="round"/></g><g transform="translate(935.045, 465.99999999999994) rotate(0, 29.955, 9)" width="59.91" height="18"><text text-decoration="none" x="0.9549999999999983" fill="rgb(0, 0, 0)" font-size="10pt" font-family="lt_regular"  y="17">B_number</text><text text-decoration="none" x="58.955" fill="#4b4b4b" font-size="10pt" font-family="noto_regular"  y="17"></text></g></g><g id="7zLjeQwO4Er"><g><path d="M 500,165 L 578,230" fill="none" stroke="#97a3b6" stroke-width="2" stroke-linecap="round" stroke-linejoin="round"/></g></g><g id="jz2Axm6fOn4"><mask id="3861f" x="476" y="206" width="66" height="63" maskUnits="userSpaceOnUse"><rect x="476" y="206" width="66" height="63" fill="white" />undefined</mask><g mask="url(#3861f)"><path d="M 490,220 L 528,255" fill="none" stroke="#97a3b6" stroke-width="2" stroke-linecap="round" stroke-linejoin="round"/></g>undefined</g><g id="3PFu6kv4AQr"><g><path d="M 487,300 L 528,255" fill="none" stroke="#97a3b6" stroke-width="2" stroke-linecap="round" stroke-linejoin="round"/></g></g><g id="2L82WvgbIXL"><mask id="de8cd" x="614" y="241" width="180" height="28" maskUnits="userSpaceOnUse"><rect x="614" y="241" width="180" height="28" fill="white" /><rect x="693.1546179226677" y="242.99999999999994" width="16.189999999999998" height="24" fill="black" /></mask><g mask="url(#de8cd)"><path d="M 628,255 L 693.7499999999999,254.99999999999994 Q 694,254.99999999999994 704,255 Q 713.4999999999998,255 713.7499999999999,255 L 780,255" fill="none" stroke="#97a3b6" stroke-width="2" stroke-linecap="round" stroke-linejoin="round"/></g><g transform="translate(696.1546179226677, 245.99999999999994)" width="10.19" height="18"><text text-decoration="none" x="0.09499999999999975" fill="#4b4b4b" font-size="10pt" font-family="lt_regular"  y="17">N</text><text text-decoration="none" x="10.094999999999999" fill="#4b4b4b" font-size="10pt" font-family="noto_regular"  y="17"></text></g></g><g id="JMClEa79J1e"><mask id="d65ec" x="886" y="241" width="178" height="28" maskUnits="userSpaceOnUse"><rect x="886" y="241" width="178" height="28" fill="white" /><rect x="964.5423087388635" y="243" width="16.189999999999998" height="24" fill="black" /></mask><g mask="url(#d65ec)"><path d="M 900,255 L 1050,255" fill="none" stroke="#97a3b6" stroke-width="2" stroke-linecap="round" stroke-linejoin="round"/></g><g transform="translate(967.5423087388635, 246)" width="10.19" height="18"><text text-decoration="none" x="0.09499999999999975" fill="#4b4b4b" font-size="10pt" font-family="lt_regular"  y="17">N</text><text text-decoration="none" x="10.094999999999999" fill="#4b4b4b" font-size="10pt" font-family="noto_regular"  y="17"></text></g></g><g id="6NTIodvE3Id"><g><path d="M 1150,255 L 1240,217" fill="none" stroke="#97a3b6" stroke-width="2" stroke-linecap="round" stroke-linejoin="round"/></g></g><g id="C8ya8bY7PGc"><g><path d="M 1240,335 L 1150,255" fill="none" stroke="#97a3b6" stroke-width="2" stroke-linecap="round" stroke-linejoin="round"/></g></g><g id="RNcxH7pA7Jx"><mask id="8fd09" x="1086" y="266" width="28" height="108" maskUnits="userSpaceOnUse"><rect x="1086" y="266" width="28" height="108" fill="white" /><rect x="1091.9049999999997" y="305.62519484894256" width="16.189999999999998" height="24" fill="black" /></mask><g mask="url(#8fd09)"><path d="M 1100,360 L 1100,330 Q 1100,330 1100,320 Q 1099.9999999999998,310.0000000000002 1099.9999999999998,310 L 1100,280" fill="none" stroke="#97a3b6" stroke-width="2" stroke-linecap="round" stroke-linejoin="round"/></g><g transform="translate(1094.9049999999997, 308.62519484894256)" width="10.19" height="18"><text text-decoration="none" x="0.09499999999999975" fill="#4b4b4b" font-size="10pt" font-family="lt_regular"  y="17">N</text><text text-decoration="none" x="10.094999999999999" fill="#4b4b4b" font-size="10pt" font-family="noto_regular"  y="17"></text></g></g><g id="Ms40Xe4xiHA"><mask id="4070a" x="1086" y="416" width="28" height="128" maskUnits="userSpaceOnUse"><rect x="1086" y="416" width="28" height="128" fill="white" /><rect x="1091.905" y="467.4267102825972" width="16.189999999999998" height="24" fill="black" /></mask><g mask="url(#4070a)"><path d="M 1100,530 L 1099.6261641430772,489.9995633092424 Q 1099.621797140147,489.53229399572655 1100,480 Q 1100,470 1100,470 L 1100,430" fill="none" stroke="#97a3b6" stroke-width="2" stroke-linecap="round" stroke-linejoin="round"/></g><g transform="translate(1094.905, 470.4267102825972)" width="10.19" height="18"><text text-decoration="none" x="0.09499999999999975" fill="#4b4b4b" font-size="10pt" font-family="lt_regular"  y="17">N</text><text text-decoration="none" x="10.094999999999999" fill="#4b4b4b" font-size="10pt" font-family="noto_regular"  y="17"></text></g></g><g id="xJDFub3Pfo4"><g><path d="M 1240,515 L 1149,555" fill="none" stroke="#97a3b6" stroke-width="2" stroke-linecap="round" stroke-linejoin="round"/></g></g><g id="rb5xoEmuA6s"><g><path d="M 1250,610 L 1149,555" fill="none" stroke="#97a3b6" stroke-width="2" stroke-linecap="round" stroke-linejoin="round"/></g></g><g id="COGEhdES4hW"><g><path d="M 1130,660 L 1100,580" fill="none" stroke="#97a3b6" stroke-width="2" stroke-linecap="round" stroke-linejoin="round"/></g></g><g id="ybaphYvtRyY"><g><path d="M 1060,670 L 1100,580" fill="none" stroke="#97a3b6" stroke-width="2" stroke-linecap="round" stroke-linejoin="round"/></g></g><g id="tfPZH4QGwyQ"><mask id="3a079" x="885" y="541" width="179" height="28" maskUnits="userSpaceOnUse"><rect x="885" y="541" width="179" height="28" fill="white" /><rect x="954.0859278143231" y="543" width="16.189999999999998" height="24" fill="black" /></mask><g mask="url(#3a079)"><path d="M 899,555 L 1050,555" fill="none" stroke="#97a3b6" stroke-width="2" stroke-linecap="round" stroke-linejoin="round"/></g><g transform="translate(957.0859278143231, 546)" width="10.19" height="18"><text text-decoration="none" x="0.09499999999999975" fill="#4b4b4b" font-size="10pt" font-family="lt_regular"  y="17">N</text><text text-decoration="none" x="10.094999999999999" fill="#4b4b4b" font-size="10pt" font-family="noto_regular"  y="17"></text></g></g><g id="kzUQ4P5yk4R"><mask id="1966f" x="614" y="541" width="180" height="28" maskUnits="userSpaceOnUse"><rect x="614" y="541" width="180" height="28" fill="white" /><rect x="681.8643745677714" y="543" width="16.189999999999998" height="24" fill="black" /></mask><g mask="url(#1966f)"><path d="M 628,555 L 780,555" fill="none" stroke="#97a3b6" stroke-width="2" stroke-linecap="round" stroke-linejoin="round"/></g><g transform="translate(684.8643745677714, 546)" width="10.19" height="18"><text text-decoration="none" x="0.09499999999999975" fill="#4b4b4b" font-size="10pt" font-family="lt_regular"  y="17">N</text><text text-decoration="none" x="10.094999999999999" fill="#4b4b4b" font-size="10pt" font-family="noto_regular"  y="17"></text></g></g><g id="DRSEOG2NWzo"><mask id="58a46" x="564" y="416" width="28" height="128" maskUnits="userSpaceOnUse"><rect x="564" y="416" width="28" height="128" fill="white" /><rect x="569.905" y="461.88564199489025" width="16.189999999999998" height="24" fill="black" /></mask><g mask="url(#58a46)"><path d="M 578,530 L 578,430" fill="none" stroke="#97a3b6" stroke-width="2" stroke-linecap="round" stroke-linejoin="round"/></g><g transform="translate(572.905, 464.88564199489025)" width="10.19" height="18"><text text-decoration="none" x="0.09499999999999975" fill="#4b4b4b" font-size="10pt" font-family="lt_regular"  y="17">N</text><text text-decoration="none" x="10.094999999999999" fill="#4b4b4b" font-size="10pt" font-family="noto_regular"  y="17"></text></g></g><g id="4XJ8tVTWb7v"><g><path d="M 528,555 L 490,505" fill="none" stroke="#97a3b6" stroke-width="2" stroke-linecap="round" stroke-linejoin="round"/></g></g><g id="SgyDbcVlgpi"><mask id="4a527" x="476" y="541" width="66" height="63" maskUnits="userSpaceOnUse"><rect x="476" y="541" width="66" height="63" fill="white" />undefined</mask><g mask="url(#4a527)"><path d="M 528,555 L 490,590" fill="none" stroke="#97a3b6" stroke-width="2" stroke-linecap="round" stroke-linejoin="round"/></g>undefined</g><g id="gmceOHwEbqp"><mask id="eecec" x="564" y="266" width="28" height="108" maskUnits="userSpaceOnUse"><rect x="564" y="266" width="28" height="108" fill="white" /><rect x="569.905" y="301.55411251281294" width="16.189999999999998" height="24" fill="black" /></mask><g mask="url(#eecec)"><path d="M 578,360 L 578,280" fill="none" stroke="#97a3b6" stroke-width="2" stroke-linecap="round" stroke-linejoin="round"/></g><g transform="translate(572.905, 304.55411251281294)" width="10.19" height="18"><text text-decoration="none" x="0.09499999999999975" fill="#4b4b4b" font-size="10pt" font-family="lt_regular"  y="17">N</text><text text-decoration="none" x="10.094999999999999" fill="#4b4b4b" font-size="10pt" font-family="noto_regular"  y="17"></text></g></g><g id="dg4UOhHj3IG"><g><path d="M 578,580 L 570,660" fill="none" stroke="#97a3b6" stroke-width="2" stroke-linecap="round" stroke-linejoin="round"/></g></g><g id="4huwopGzz4o"><g><path d="M 650,650 L 578,580" fill="none" stroke="#97a3b6" stroke-width="2" stroke-linecap="round" stroke-linejoin="round"/></g></g><g id="wj39Nq0vB25"><g><path d="M 1005,490 L 1049,529" fill="none" stroke="#97a3b6" stroke-width="2" stroke-linecap="round" stroke-linejoin="round"/></g></g><g id="nzdhAZezfLF"><g><path d="M 1070,150 L 1100,230" fill="none" stroke="#97a3b6" stroke-width="2" stroke-linecap="round" stroke-linejoin="round"/></g></g><g id="NPWTgMOwp5Q"><g><path d="M 1170,150 L 1100,230" fill="none" stroke="#97a3b6" stroke-width="2" stroke-linecap="round" stroke-linejoin="round"/></g></g><g id="REc1IioiLdT"><g><path d="M 1005,330 L 1049,281" fill="none" stroke="#97a3b6" stroke-width="2" stroke-linecap="round" stroke-linejoin="round"/></g></g><g id="e8mbqXls83o"><g><path d="M 640,150 L 578,230" fill="none" stroke="#97a3b6" stroke-width="2" stroke-linecap="round" stroke-linejoin="round"/></g></g><g id="skvc2oAseF9"><g transform="translate(1030 200)"><rect x="0" y="0" width="109.99999999999991" height="50" fill="rgba(255,255,255,0.01)" stroke="rgba(255,255,255,0.01)"/></g><g transform="translate(1040, 210) rotate(0, 0, 0)" width="7.74" height="18"><text text-decoration="none" x="0" fill="#4b4b4b" font-size="10pt" font-family="lt_regular"  y="17">1</text><text text-decoration="none" x="8" fill="#4b4b4b" font-size="10pt" font-family="noto_regular"  y="17"></text></g></g><g id="EqcDIhdOXBA"><g transform="translate(1110 490)"><rect x="0" y="0" width="69.34579439252335" height="58.999999999999964" fill="rgba(255,255,255,0.01)" stroke="rgba(255,255,255,0.01)"/></g><g transform="translate(1120, 500) rotate(0, 0, 0)" width="7.74" height="18"><text text-decoration="none" x="0" fill="#4b4b4b" font-size="10pt" font-family="lt_regular"  y="17">1</text><text text-decoration="none" x="8" fill="#4b4b4b" font-size="10pt" font-family="noto_regular"  y="17"></text></g></g><g id="KYrAAwVJBZJ"><g transform="translate(552.5 500)"><rect x="0" y="0" width="50.000000000000036" height="40" fill="rgba(255,255,255,0.01)" stroke="rgba(255,255,255,0.01)"/></g><g transform="translate(562.5, 510) rotate(0, 0, 0)" width="7.74" height="18"><text text-decoration="none" x="0" fill="#4b4b4b" font-size="10pt" font-family="lt_regular"  y="17">1</text><text text-decoration="none" x="8" fill="#4b4b4b" font-size="10pt" font-family="noto_regular"  y="17"></text></g></g><g id="avONTfLhFlD"><g transform="translate(552.5 499.99999999999994)"><rect x="0" y="0" width="49.99999999999993" height="40" fill="rgba(255,255,255,0.01)" stroke="rgba(255,255,255,0.01)"/></g><g transform="translate(562.5, 509.99999999999994) rotate(0, 0, 0)" width="7.74" height="18"><text text-decoration="none" x="0" fill="#4b4b4b" font-size="10pt" font-family="lt_regular"  y="17">1</text><text text-decoration="none" x="8" fill="#4b4b4b" font-size="10pt" font-family="noto_regular"  y="17"></text></g></g><g id="H0wprx6Pa0w"><g transform="translate(620 280)"><rect x="0" y="0" width="80.00000000000006" height="49.999999999999986" fill="rgba(255,255,255,0.01)" stroke="rgba(255,255,255,0.01)"/></g><g transform="translate(630, 290) rotate(0, 0, 0)" width="7.74" height="18"><text text-decoration="none" x="0" fill="#4b4b4b" font-size="10pt" font-family="lt_regular"  y="17">1</text><text text-decoration="none" x="8" fill="#4b4b4b" font-size="10pt" font-family="noto_regular"  y="17"></text></g></g><g id="X44fqsUENY3"><g transform="translate(1021.4953271028039 580)"><rect x="0" y="0" width="49.53271028037424" height="40" fill="rgba(255,255,255,0.01)" stroke="rgba(255,255,255,0.01)"/></g><g transform="translate(1031.495327102804, 590) rotate(0, 0, 0)" width="7.74" height="18"><text text-decoration="none" x="0" fill="#4b4b4b" font-size="10pt" font-family="lt_regular"  y="17">1</text><text text-decoration="none" x="8" fill="#4b4b4b" font-size="10pt" font-family="noto_regular"  y="17"></text></g></g><g id="zoXCTOZJRtb"><g transform="translate(1110.0000000000002 290)"><rect x="0" y="0" width="49.9999999999999" height="46" fill="rgba(255,255,255,0.01)" stroke="rgba(255,255,255,0.01)"/></g><g transform="translate(1120.0000000000002, 300) rotate(0, 0, 0)" width="7.94" height="26"><text text-decoration="none" x="0" fill="rgb(75, 75, 75)" font-size="14pt" font-family="lt_regular"  y="20">*</text><text text-decoration="none" x="8" fill="#4b4b4b" font-size="10pt" font-family="noto_regular"  y="20"></text></g></g></svg>